<svg xmlns="http://www.w3.org/2000/svg" width="1600" height="430" viewBox="0 0 1600 430"><rect width="1600" height="430" fill="#f5f1e8"/><rect x="0" y="318" width="1600" height="112" fill="#e8dfd1"/><circle cx="1420" cy="100" r="54" fill="#dce9e2"/><rect x="780" y="120" width="230" height="160" rx="18" fill="#111"/><rect x="805" y="140" width="180" height="100" rx="10" fill="#333"/><g fill="#d89b3d"><rect x="830" y="158" width="128" height="10" rx="5"/><rect x="830" y="184" width="128" height="10" rx="5"/><rect x="830" y="210" width="128" height="10" rx="5"/></g><rect x="1045" y="95" width="115" height="198" rx="26" fill="#101010"/><rect x="1067" y="55" width="70" height="76" rx="16" fill="#dfe8e2"/><circle cx="1103" cy="221" r="25" fill="#777"/><rect x="1215" y="115" width="105" height="180" rx="28" fill="#151515"/><rect x="1240" y="55" width="55" height="75" rx="11" fill="#111"/><rect x="1365" y="122" width="150" height="175" rx="10" fill="#d7a45d"/><g stroke="#111" stroke-width="9" stroke-linecap="round"><line x1="1392" y1="80" x2="1392" y2="158"/><line x1="1422" y1="70" x2="1422" y2="158"/><line x1="1452" y1="82" x2="1452" y2="158"/></g><rect x="1480" y="170" width="78" height="90" rx="8" fill="#c9934c"/><circle cx="330" cy="120" r="38" fill="#e1ebe5"/><rect x="285" y="165" width="105" height="105" rx="9" fill="#d7a45d"/><text x="80" y="115" font-family="Arial" font-size="34" font-weight="800" fill="#123C2F">EverNest Kitchenware</text><text x="80" y="158" font-family="Arial" font-size="22" fill="#53635d">Private Label Kitchen Products for Global Buyers</text></svg>